<svg xmlns="http://www.w3.org/2000/svg" xmlns:xlink="http://www.w3.org/1999/xlink" viewBox="0,0,255.99542,255.99542" width="30px" height="30px" fill-rule="nonzero"><g fill="white" fill-rule="nonzero" stroke="none" stroke-width="1" stroke-linecap="butt" stroke-linejoin="miter" stroke-miterlimit="10" stroke-dasharray="" stroke-dashoffset="0" font-family="none" font-weight="none" font-size="none" text-anchor="none" style="mix-blend-mode: normal"><g transform="scale(8.53333,8.53333)"><path d="M15,3c-6.627,0 -12,5.373 -12,12c0,6.016 4.432,10.984 10.206,11.852v-8.672h-2.969v-3.154h2.969v-2.099c0,-3.475 1.693,-5 4.581,-5c1.383,0 2.115,0.103 2.461,0.149v2.753h-1.97c-1.226,0 -1.654,1.163 -1.654,2.473v1.724h3.593l-0.487,3.154h-3.106v8.697c5.857,-0.794 10.376,-5.802 10.376,-11.877c0,-6.627 -5.373,-12 -12,-12z"></path></g></g></svg>